<svg xmlns="http://www.w3.org/2000/svg" viewBox="0 0 290 290" width="290" height="290" preserveAspectRatio="xMidYMid meet" style="width: 100%; height: 100%; transform: translate3d(0px, 0px, 0px); content-visibility: visible;"><defs><clipPath id="__lottie_element_3"><rect width="290" height="290" x="0" y="0"></rect></clipPath><linearGradient id="__lottie_element_9" spreadMethod="pad" gradientUnits="userSpaceOnUse" x1="-14.996999740600586" y1="-6.005000114440918" x2="68.99400329589844" y2="38.01300048828125"><stop offset="0%" stop-color="rgb(224,165,251)"></stop><stop offset="34%" stop-color="rgb(177,131,249)"></stop><stop offset="100%" stop-color="rgb(130,96,246)"></stop></linearGradient><linearGradient id="__lottie_element_12" spreadMethod="pad" gradientUnits="userSpaceOnUse" x1="-19" y1="-12" x2="43" y2="22"><stop offset="0%" stop-color="rgb(149,96,244)"></stop><stop offset="34%" stop-color="rgb(114,76,243)"></stop><stop offset="100%" stop-color="rgb(80,56,241)"></stop></linearGradient><radialGradient id="__lottie_element_16" spreadMethod="pad" gradientUnits="userSpaceOnUse" cx="-34" cy="-39" r="140.1606221447379" fx="-34" fy="-39"><stop offset="0%" stop-color="rgb(228,168,250)"></stop><stop offset="34%" stop-color="rgb(157,114,246)"></stop><stop offset="100%" stop-color="rgb(86,61,242)"></stop></radialGradient><linearGradient id="__lottie_element_20" spreadMethod="pad" gradientUnits="userSpaceOnUse" x1="-35" y1="-26" x2="79" y2="71"><stop offset="0%" stop-color="rgb(185,125,247)"></stop><stop offset="34%" stop-color="rgb(131,90,245)"></stop><stop offset="100%" stop-color="rgb(76,54,242)"></stop></linearGradient><linearGradient id="__lottie_element_24" spreadMethod="pad" gradientUnits="userSpaceOnUse" x1="-14" y1="-16" x2="59" y2="56"><stop offset="0%" stop-color="rgb(179,120,247)"></stop><stop offset="34%" stop-color="rgb(129,87,244)"></stop><stop offset="100%" stop-color="rgb(78,55,241)"></stop></linearGradient><linearGradient id="__lottie_element_28" spreadMethod="pad" gradientUnits="userSpaceOnUse" x1="-21" y1="-15" x2="43" y2="42"><stop offset="0%" stop-color="rgb(187,125,247)"></stop><stop offset="34%" stop-color="rgb(132,90,244)"></stop><stop offset="100%" stop-color="rgb(76,54,241)"></stop></linearGradient><linearGradient id="__lottie_element_32" spreadMethod="pad" gradientUnits="userSpaceOnUse" x1="-21" y1="-15" x2="43" y2="42"><stop offset="0%" stop-color="rgb(182,122,247)"></stop><stop offset="34%" stop-color="rgb(131,89,244)"></stop><stop offset="100%" stop-color="rgb(79,56,241)"></stop></linearGradient><linearGradient id="__lottie_element_36" spreadMethod="pad" gradientUnits="userSpaceOnUse" x1="-21" y1="-15" x2="43" y2="42"><stop offset="0%" stop-color="rgb(183,123,247)"></stop><stop offset="34%" stop-color="rgb(132,90,244)"></stop><stop offset="100%" stop-color="rgb(81,57,241)"></stop></linearGradient><linearGradient id="__lottie_element_40" spreadMethod="pad" gradientUnits="userSpaceOnUse" x1="-21" y1="-15" x2="43" y2="42"><stop offset="0%" stop-color="rgb(184,124,247)"></stop><stop offset="34%" stop-color="rgb(131,90,244)"></stop><stop offset="100%" stop-color="rgb(78,55,241)"></stop></linearGradient><linearGradient id="__lottie_element_44" spreadMethod="pad" gradientUnits="userSpaceOnUse" x1="-21" y1="-15" x2="43" y2="42"><stop offset="0%" stop-color="rgb(180,121,247)"></stop><stop offset="34%" stop-color="rgb(130,88,244)"></stop><stop offset="100%" stop-color="rgb(79,56,241)"></stop></linearGradient><mask id="__lottie_element_45" mask-type="alpha"><g transform="matrix(0.30000001192092896,0,0,0.30000001192092896,83.95459747314453,94.0730972290039)" opacity="1" style="display: block;"><g opacity="1" transform="matrix(1,0,0,1,194.13499450683594,185.23899841308594)"><path fill="rgb(255,255,255)" fill-opacity="1" d=" M160.26300048828125,-109.64099884033203 C160.51800537109375,-108.8759994506836 160.70199584960938,-108.19100189208984 160.8820037841797,-107.43099975585938 C163.9239959716797,-95.40899658203125 166.51100158691406,-75.61900329589844 165.7519989013672,-62.696998596191406 C164.33999633789062,-38.64400100708008 145.54299926757812,72.16000366210938 24.533000946044922,65.05699920654297 C-18.26799964904785,62.54399871826172 -90.79100036621094,27.13599967956543 -89.59200286865234,-43.10100173950195 C-89.41300201416016,-42.72800064086914 -89.2239990234375,-42.340999603271484 -89.03600311279297,-41.95600128173828 C-89.07499694824219,-42.24800109863281 -89.125,-42.53900146484375 -89.16000366210938,-42.83300018310547 C-89.41500091552734,-45.00299835205078 -88.23300170898438,-49.54899978637695 -91.86799621582031,-53.21500015258789 C-94.87200164794922,-56.24300003051758 -99.73500061035156,-57.21500015258789 -105.71900177001953,-56.12900161743164 C-134.04600524902344,-51.220001220703125 -164.07699584960938,-18.274999618530273 -164.1300048828125,-18.222000122070312 C-177.093994140625,-5.258999824523926 -185.3040008544922,9.944999694824219 -189.71200561523438,26.541000366210938 C-191.6999969482422,34.0989990234375 -192.843994140625,41.76599884033203 -193.08700561523438,49.4900016784668 C-193.88499450683594,76.0999984741211 -184.0469970703125,102.7020034790039 -164.07899475097656,123.26100158691406 C-138.4739990234375,149.71600341796875 -111.68000030517578,157.49899291992188 -100.10900115966797,161.30299377441406 C-27.613000869750977,184.98899841308594 53.23099899291992,159.92599487304688 111.19400024414062,102.44000244140625 C190.4429931640625,23.843000411987305 193.88499450683594,-102.25599670410156 121.30000305175781,-184.98899841308594 C139.06399536132812,-163.02999877929688 152.46299743652344,-137.4510040283203 160.26300048828125,-109.64099884033203z"></path></g></g></mask><radialGradient id="__lottie_element_51" spreadMethod="pad" gradientUnits="userSpaceOnUse" cx="0" cy="0" r="124.4025723206719" fx="0" fy="0"><stop offset="0%" stop-color="rgb(198,64,240)"></stop><stop offset="34%" stop-color="rgb(202,78,241)"></stop><stop offset="100%" stop-color="rgb(207,92,243)"></stop></radialGradient><mask id="__lottie_element_53"><path fill="url(#__lottie_element_52)" d=" M0,-127.5 C70.36724853515625,-127.5 127.5,-70.36724853515625 127.5,0 C127.5,70.36724853515625 70.36724853515625,127.5 0,127.5 C-70.36724853515625,127.5 -127.5,70.36724853515625 -127.5,0 C-127.5,-70.36724853515625 -70.36724853515625,-127.5 0,-127.5z"></path></mask><radialGradient id="__lottie_element_52" spreadMethod="pad" gradientUnits="userSpaceOnUse" cx="0" cy="0" r="124.4025723206719" fx="0" fy="0"><stop stop-color="rgb(255,255,255)" offset="0%" stop-opacity="1"></stop><stop stop-color="rgb(255,255,255)" offset="50%" stop-opacity="0.5"></stop><stop stop-color="rgb(255,255,255)" offset="100%" stop-opacity="0"></stop></radialGradient><radialGradient id="__lottie_element_54" spreadMethod="pad" gradientUnits="userSpaceOnUse" cx="0" cy="0" r="102.6498904042279" fx="0" fy="0"><stop offset="0%" stop-color="rgb(176,36,222)"></stop><stop offset="50%" stop-color="rgb(143,28,179)"></stop><stop offset="100%" stop-color="rgb(109,21,137)"></stop></radialGradient><mask id="__lottie_element_55" mask-type="alpha"><g transform="matrix(0.30000001192092896,0,0,0.30000001192092896,70.99939727783203,59.699398040771484)" opacity="1" style="display: block;"><g opacity="1" transform="matrix(1,0,0,1,275.177001953125,223.04600524902344)"><path fill="rgb(255,255,255)" fill-opacity="1" d=" M32.52899932861328,-137.81100463867188 C35.11800003051758,-132.11199951171875 37.31999969482422,-126.21199798583984 39.209999084472656,-120.10399627685547 C44.875999450683594,-101.70700073242188 47.59400177001953,-81.61000061035156 46.36600112915039,-60.69499969482422 C41.814998626708984,16.840999603271484 4.9629998207092285,85.61299896240234 -63.459999084472656,81.59600067138672 C-103.572998046875,79.24099731445312 -119.63700103759766,50.94300079345703 -127.4520034790039,34.66899871826172 C-128.6510009765625,104.90599822998047 -56.12799835205078,140.31399536132812 -13.32699966430664,142.82699584960938 C107.68299865722656,149.92999267578125 126.4800033569336,39.125999450683594 127.89199829101562,15.072999954223633 C128.6510009765625,2.1510000228881836 126.06400299072266,-17.638999938964844 123.02200317382812,-29.660999298095703 C122.84200286865234,-30.42099952697754 122.65799713134766,-31.106000900268555 122.40299987792969,-31.871000289916992 C109.38600158691406,-78.28199768066406 80.79000091552734,-118.48799896240234 42.30500030517578,-146.0070037841797 C36.763999938964844,-149.92999267578125 29.743000030517578,-143.9709930419922 32.52899932861328,-137.81100463867188z"></path></g></g></mask><radialGradient id="__lottie_element_61" spreadMethod="pad" gradientUnits="userSpaceOnUse" cx="45.821998596191406" cy="135.60899353027344" r="391.38350239178516" fx="45.821998596191406" fy="135.60899353027344"><stop offset="0%" stop-color="rgb(238,195,250)"></stop><stop offset="28%" stop-color="rgb(202,123,227)"></stop><stop offset="56%" stop-color="rgb(167,52,204)"></stop></radialGradient><mask id="__lottie_element_62" mask-type="alpha"><g transform="matrix(0.30000001192092896,0,0,0.30000001192092896,83.95459747314453,94.0730972290039)" opacity="1" style="display: block;"><g opacity="1" transform="matrix(1,0,0,1,194.13499450683594,185.23899841308594)"><path fill="rgb(255,255,255)" fill-opacity="1" d=" M160.26300048828125,-109.64099884033203 C160.51800537109375,-108.8759994506836 160.70199584960938,-108.19100189208984 160.8820037841797,-107.43099975585938 C163.9239959716797,-95.40899658203125 166.51100158691406,-75.61900329589844 165.7519989013672,-62.696998596191406 C164.33999633789062,-38.64400100708008 145.54299926757812,72.16000366210938 24.533000946044922,65.05699920654297 C-18.26799964904785,62.54399871826172 -90.79100036621094,27.13599967956543 -89.59200286865234,-43.10100173950195 C-89.41300201416016,-42.72800064086914 -89.2239990234375,-42.340999603271484 -89.03600311279297,-41.95600128173828 C-89.07499694824219,-42.24800109863281 -89.125,-42.53900146484375 -89.16000366210938,-42.83300018310547 C-89.41500091552734,-45.00299835205078 -88.23300170898438,-49.54899978637695 -91.86799621582031,-53.21500015258789 C-94.87200164794922,-56.24300003051758 -99.73500061035156,-57.21500015258789 -105.71900177001953,-56.12900161743164 C-134.04600524902344,-51.220001220703125 -164.07699584960938,-18.274999618530273 -164.1300048828125,-18.222000122070312 C-177.093994140625,-5.258999824523926 -185.3040008544922,9.944999694824219 -189.71200561523438,26.541000366210938 C-191.6999969482422,34.0989990234375 -192.843994140625,41.76599884033203 -193.08700561523438,49.4900016784668 C-193.88499450683594,76.0999984741211 -184.0469970703125,102.7020034790039 -164.07899475097656,123.26100158691406 C-138.4739990234375,149.71600341796875 -111.68000030517578,157.49899291992188 -100.10900115966797,161.30299377441406 C-27.613000869750977,184.98899841308594 53.23099899291992,159.92599487304688 111.19400024414062,102.44000244140625 C190.4429931640625,23.843000411987305 193.88499450683594,-102.25599670410156 121.30000305175781,-184.98899841308594 C139.06399536132812,-163.02999877929688 152.46299743652344,-137.4510040283203 160.26300048828125,-109.64099884033203z"></path></g></g></mask><linearGradient id="__lottie_element_68" spreadMethod="pad" gradientUnits="userSpaceOnUse" x1="-182" y1="18" x2="145" y2="-243"><stop offset="0%" stop-color="rgb(198,64,240)"></stop><stop offset="31%" stop-color="rgb(218,126,247)"></stop><stop offset="63%" stop-color="rgb(238,188,254)"></stop></linearGradient></defs><g clip-path="url(#__lottie_element_3)"><g transform="matrix(1,0,0,1,-1,255)" opacity="1" style="display: block;"><g opacity="1" transform="matrix(1,0,0,1,0,0)"><path fill="rgb(36,36,36)" fill-opacity="1" d=" M268.8680114746094,-15.088000297546387 C268.59698486328125,-15.204999923706055 268.2200012207031,-15.263999938964844 267.73699951171875,-15.263999938964844 C265.85198974609375,-15.263999938964844 264.5469970703125,-14.248000144958496 263.8219909667969,-12.217000007629395 C263.8219909667969,-12.217000007629395 263.7640075683594,-12.217000007629395 263.7640075683594,-12.217000007629395 C263.7640075683594,-12.217000007629395 263.7640075683594,-15 263.7640075683594,-15 C263.7640075683594,-15 259.1809997558594,-15 259.1809997558594,-15 C259.1809997558594,-15 259.1809997558594,0 259.1809997558594,0 C259.1809997558594,0 263.7640075683594,0 263.7640075683594,0 C263.7640075683594,0 263.7640075683594,-7.163000106811523 263.7640075683594,-7.163000106811523 C263.7640075683594,-8.432000160217285 264.04400634765625,-9.435999870300293 264.6050109863281,-10.17300033569336 C265.1659851074219,-10.90999984741211 265.9440002441406,-11.279000282287598 266.94000244140625,-11.279000282287598 C267.67498779296875,-11.279000282287598 268.3169860839844,-11.128000259399414 268.8680114746094,-10.824999809265137 C268.8680114746094,-10.824999809265137 268.8680114746094,-15.088000297546387 268.8680114746094,-15.088000297546387z"></path></g><g opacity="1" transform="matrix(1,0,0,1,0,0)"><path fill="rgb(36,36,36)" fill-opacity="1" d=" M247.33200073242188,-9.02299976348877 C247.447998046875,-9.940999984741211 247.7740020751953,-10.708000183105469 248.31100463867188,-11.322999954223633 C248.84800720214844,-11.937999725341797 249.48300170898438,-12.246000289916992 250.21800231933594,-12.246000289916992 C251.93899536132812,-12.246000289916992 252.8000030517578,-11.170999526977539 252.8000030517578,-9.02299976348877 C252.8000030517578,-9.02299976348877 247.33200073242188,-9.02299976348877 247.33200073242188,-9.02299976348877z M257.04901123046875,-8.130000114440918 C257.04901123046875,-10.357000350952148 256.45599365234375,-12.119000434875488 255.27200317382812,-13.418000221252441 C254.08799743652344,-14.717000007629395 252.41299438476562,-15.366000175476074 250.2469940185547,-15.366000175476074 C248.15899658203125,-15.366000175476074 246.39999389648438,-14.638999938964844 244.968994140625,-13.184000015258789 C243.53799438476562,-11.729000091552734 242.82200622558594,-9.755999565124512 242.82200622558594,-7.265999794006348 C242.82200622558594,-4.863999843597412 243.48399353027344,-2.990999937057495 244.8090057373047,-1.6480000019073486 C246.13299560546875,-0.3050000071525574 247.99400329589844,0.3659999966621399 250.39199829101562,0.3659999966621399 C252.58700561523438,0.3659999966621399 254.37100219726562,-0.004999999888241291 255.74400329589844,-0.746999979019165 C255.74400329589844,-0.746999979019165 255.74400329589844,-4.086999893188477 255.74400329589844,-4.086999893188477 C254.50599670410156,-3.305999994277954 253.0709991455078,-2.9149999618530273 251.43699645996094,-2.9149999618530273 C248.875,-2.9149999618530273 247.51600646972656,-4.004000186920166 247.36099243164062,-6.182000160217285 C247.36099243164062,-6.182000160217285 257.04901123046875,-6.182000160217285 257.04901123046875,-6.182000160217285 C257.04901123046875,-6.182000160217285 257.04901123046875,-8.130000114440918 257.04901123046875,-8.130000114440918z"></path></g><g opacity="1" transform="matrix(1,0,0,1,0,0)"><path fill="rgb(36,36,36)" fill-opacity="1" d=" M240.67599487304688,-9.1850004196167 C240.67599487304688,-13.305999755859375 239.03199768066406,-15.366000175476074 235.7449951171875,-15.366000175476074 C233.65699768066406,-15.366000175476074 232.0659942626953,-14.45300006866455 230.9739990234375,-12.626999855041504 C230.9739990234375,-12.626999855041504 230.91600036621094,-12.626999855041504 230.91600036621094,-12.626999855041504 C230.91600036621094,-12.626999855041504 230.91600036621094,-15 230.91600036621094,-15 C230.91600036621094,-15 226.33299255371094,-15 226.33299255371094,-15 C226.33299255371094,-15 226.33299255371094,0 226.33299255371094,0 C226.33299255371094,0 230.91600036621094,0 230.91600036621094,0 C230.91600036621094,0 230.91600036621094,-8.555000305175781 230.91600036621094,-8.555000305175781 C230.91600036621094,-9.501999855041504 231.17100524902344,-10.282999992370605 231.6840057373047,-10.89799976348877 C232.1959991455078,-11.512999534606934 232.8489990234375,-11.821000099182129 233.64199829101562,-11.821000099182129 C235.28500366210938,-11.821000099182129 236.10699462890625,-10.659000396728516 236.10699462890625,-8.335000038146973 C236.10699462890625,-8.335000038146973 236.10699462890625,0 236.10699462890625,0 C236.10699462890625,0 240.67599487304688,0 240.67599487304688,0 C240.67599487304688,0 240.67599487304688,-9.1850004196167 240.67599487304688,-9.1850004196167z"></path></g><g opacity="1" transform="matrix(1,0,0,1,0,0)"><path fill="rgb(36,36,36)" fill-opacity="1" d=" M217.69700622558594,-4.284999847412109 C217.11199951171875,-3.5480000972747803 216.34500122070312,-3.178999900817871 215.3979949951172,-3.178999900817871 C214.4409942626953,-3.178999900817871 213.68699645996094,-3.5420000553131104 213.13600158691406,-4.269999980926514 C212.5850067138672,-4.997000217437744 212.3090057373047,-5.986000061035156 212.3090057373047,-7.236000061035156 C212.3090057373047,-8.690999984741211 212.5989990234375,-9.819000244140625 213.1790008544922,-10.619999885559082 C213.75900268554688,-11.420999526977539 214.5570068359375,-11.821000099182129 215.57200622558594,-11.821000099182129 C216.46099853515625,-11.821000099182129 217.1840057373047,-11.487000465393066 217.74000549316406,-10.817999839782715 C218.29600524902344,-10.14900016784668 218.57400512695312,-9.340999603271484 218.57400512695312,-8.394000053405762 C218.57400512695312,-8.394000053405762 218.57400512695312,-7.206999778747559 218.57400512695312,-7.206999778747559 C218.57400512695312,-5.995999813079834 218.28199768066406,-5.021999835968018 217.69700622558594,-4.284999847412109z M223.0989990234375,-15 C223.0989990234375,-15 218.51600646972656,-15 218.51600646972656,-15 C218.51600646972656,-15 218.51600646972656,-13.256999969482422 218.51600646972656,-13.256999969482422 C218.51600646972656,-13.256999969482422 218.45799255371094,-13.256999969482422 218.45799255371094,-13.256999969482422 C217.5590057373047,-14.663000106811523 216.2050018310547,-15.366000175476074 214.39700317382812,-15.366000175476074 C212.37600708007812,-15.366000175476074 210.7469940185547,-14.619000434875488 209.50999450683594,-13.125 C208.27200317382812,-11.630999565124512 207.6540069580078,-9.61400032043457 207.6540069580078,-7.074999809265137 C207.6540069580078,-4.809000015258789 208.2100067138672,-3.003000020980835 209.32200622558594,-1.6549999713897705 C210.4340057373047,-0.3070000112056732 211.93699645996094,0.3659999966621399 213.83200073242188,0.3659999966621399 C215.8719940185547,0.3659999966621399 217.41400146484375,-0.4729999899864197 218.45799255371094,-2.1530001163482666 C218.45799255371094,-2.1530001163482666 218.51600646972656,-2.1530001163482666 218.51600646972656,-2.1530001163482666 C218.51600646972656,-2.1530001163482666 218.51600646972656,-0.9670000076293945 218.51600646972656,-0.9670000076293945 C218.51600646972656,0.4490000009536743 218.09100341796875,1.5700000524520874 217.24000549316406,2.3949999809265137 C216.38900756835938,3.2200000286102295 215.19000244140625,3.632999897003174 213.64300537109375,3.632999897003174 C212.08599853515625,3.632999897003174 210.54400634765625,3.183000087738037 209.01699829101562,2.2850000858306885 C209.01699829101562,2.2850000858306885 209.01699829101562,6.182000160217285 209.01699829101562,6.182000160217285 C210.18699645996094,6.757999897003174 211.7729949951172,7.046000003814697 213.7740020751953,7.046000003814697 C216.8000030517578,7.046000003814697 219.11099243164062,6.281000137329102 220.70599365234375,4.752999782562256 C222.30099487304688,3.2249999046325684 223.0989990234375,1.069000005722046 223.0989990234375,-1.7139999866485596 C223.0989990234375,-1.7139999866485596 223.0989990234375,-15 223.0989990234375,-15z"></path></g><g opacity="1" transform="matrix(1,0,0,1,0,0)"><path fill="rgb(36,36,36)" fill-opacity="1" d=" M205.27499389648438,-15 C205.27499389648438,-15 200.69200134277344,-15 200.69200134277344,-15 C200.69200134277344,-15 200.69200134277344,0 200.69200134277344,0 C200.69200134277344,0 205.27499389648438,0 205.27499389648438,0 C205.27499389648438,0 205.27499389648438,-15 205.27499389648438,-15z M204.9199981689453,-18.047000885009766 C205.4080047607422,-18.496000289916992 205.65199279785156,-19.07200050354004 205.65199279785156,-19.774999618530273 C205.65199279785156,-20.468000411987305 205.4080047607422,-21.035999298095703 204.9199981689453,-21.475000381469727 C204.4320068359375,-21.913999557495117 203.79600524902344,-22.134000778198242 203.01300048828125,-22.134000778198242 C202.23899841308594,-22.134000778198242 201.6060028076172,-21.913999557495117 201.11300659179688,-21.475000381469727 C200.6199951171875,-21.035999298095703 200.3730010986328,-20.468000411987305 200.3730010986328,-19.774999618530273 C200.3730010986328,-19.10099983215332 200.6199951171875,-18.533000946044922 201.11300659179688,-18.069000244140625 C201.6060028076172,-17.604999542236328 202.23899841308594,-17.37299919128418 203.01300048828125,-17.37299919128418 C203.79600524902344,-17.37299919128418 204.4320068359375,-17.597999572753906 204.9199981689453,-18.047000885009766z"></path></g><g opacity="1" transform="matrix(1,0,0,1,0,0)"><path fill="rgb(36,36,36)" fill-opacity="1" d=" M191.78799438476562,0.3659999966621399 C192.677001953125,0.3659999966621399 193.53500366210938,0.2759999930858612 194.36199951171875,0.0949999988079071 C195.18899536132812,-0.0860000029206276 195.91900634765625,-0.37299999594688416 196.552001953125,-0.7689999938011169 C197.18499755859375,-1.1649999618530273 197.69200134277344,-1.6770000457763672 198.07400512695312,-2.306999921798706 C198.45599365234375,-2.937000036239624 198.64700317382812,-3.696000099182129 198.64700317382812,-4.585000038146973 C198.64700317382812,-5.21999979019165 198.55299377441406,-5.767000198364258 198.36399841308594,-6.22599983215332 C198.1750030517578,-6.684999942779541 197.90499877929688,-7.085000038146973 197.552001953125,-7.427000045776367 C197.19900512695312,-7.769000053405762 196.7760009765625,-8.065999984741211 196.2830047607422,-8.319999694824219 C195.7899932861328,-8.574000358581543 195.23899841308594,-8.807999610900879 194.6300048828125,-9.02299976348877 C194.29100036621094,-9.140000343322754 193.9510040283203,-9.255999565124512 193.60800170898438,-9.368000030517578 C193.26499938964844,-9.479999542236328 192.95199584960938,-9.607000350952148 192.6719970703125,-9.74899959564209 C192.39100646972656,-9.890000343322754 192.1649932861328,-10.059000015258789 191.99099731445312,-10.253999710083008 C191.81700134277344,-10.449000358581543 191.72999572753906,-10.682999610900879 191.72999572753906,-10.956999778747559 C191.72999572753906,-11.161999702453613 191.78799438476562,-11.345000267028809 191.9040069580078,-11.505999565124512 C192.02000427246094,-11.666999816894531 192.1790008544922,-11.798999786376953 192.3820037841797,-11.902000427246094 C192.5850067138672,-12.005000114440918 192.82000732421875,-12.081999778747559 193.08599853515625,-12.13599967956543 C193.3520050048828,-12.1899995803833 193.63400268554688,-12.217000007629395 193.9340057373047,-12.217000007629395 C194.57200622558594,-12.217000007629395 195.2220001220703,-12.130999565124512 195.88400268554688,-11.960000038146973 C196.54600524902344,-11.788999557495117 197.16799926757812,-11.532999992370605 197.7480010986328,-11.190999984741211 C197.7480010986328,-11.190999984741211 197.7480010986328,-14.765999794006348 197.7480010986328,-14.765999794006348 C197.08999633789062,-14.961000442504883 196.4239959716797,-15.109000205993652 195.7469940185547,-15.211999893188477 C195.07000732421875,-15.3149995803833 194.40199279785156,-15.366000175476074 193.7449951171875,-15.366000175476074 C192.9040069580078,-15.366000175476074 192.093994140625,-15.276000022888184 191.3159942626953,-15.095000267028809 C190.53799438476562,-14.913999557495117 189.8470001220703,-14.631999969482422 189.2429962158203,-14.246000289916992 C188.63900756835938,-13.859999656677246 188.15499877929688,-13.36400032043457 187.79200744628906,-12.758999824523926 C187.4290008544922,-12.152999877929688 187.24899291992188,-11.430999755859375 187.24899291992188,-10.590999603271484 C187.24899291992188,-9.97599983215332 187.3280029296875,-9.442999839782715 187.48800659179688,-8.994000434875488 C187.6479949951172,-8.545000076293945 187.87899780273438,-8.149999618530273 188.1840057373047,-7.808000087738037 C188.48899841308594,-7.466000080108643 188.86500549316406,-7.165999889373779 189.31500244140625,-6.9070000648498535 C189.76499938964844,-6.6479997634887695 190.28399658203125,-6.4070000648498535 190.87399291992188,-6.182000160217285 C191.24099731445312,-6.035999774932861 191.6230010986328,-5.9029998779296875 192.02000427246094,-5.785999774932861 C192.41600036621094,-5.669000148773193 192.781005859375,-5.5370001792907715 193.11500549316406,-5.390999794006348 C193.44900512695312,-5.244999885559082 193.7209930419922,-5.072999954223633 193.9340057373047,-4.877999782562256 C194.14700317382812,-4.683000087738037 194.2530059814453,-4.439000129699707 194.2530059814453,-4.145999908447266 C194.2530059814453,-3.687000036239624 194.0189971923828,-3.3450000286102295 193.5500030517578,-3.119999885559082 C193.08099365234375,-2.8949999809265137 192.44000244140625,-2.7829999923706055 191.6280059814453,-2.7829999923706055 C190.96099853515625,-2.7829999923706055 190.2530059814453,-2.8949999809265137 189.50399780273438,-3.119999885559082 C188.7550048828125,-3.3450000286102295 188.0030059814453,-3.687000036239624 187.24899291992188,-4.145999908447266 C187.24899291992188,-4.145999908447266 187.24899291992188,-0.3959999978542328 187.24899291992188,-0.3959999978542328 C188.64100646972656,0.1120000034570694 190.1540069580078,0.3659999966621399 191.78799438476562,0.3659999966621399z"></path></g><g opacity="1" transform="matrix(1,0,0,1,0,0)"><path fill="rgb(36,36,36)" fill-opacity="1" d=" M176.3719940185547,-9.02299976348877 C176.48800659179688,-9.940999984741211 176.81300354003906,-10.708000183105469 177.35000610351562,-11.322999954223633 C177.88699340820312,-11.937999725341797 178.52200317382812,-12.246000289916992 179.2570037841797,-12.246000289916992 C180.97799682617188,-12.246000289916992 181.83900451660156,-11.170999526977539 181.83900451660156,-9.02299976348877 C181.83900451660156,-9.02299976348877 176.3719940185547,-9.02299976348877 176.3719940185547,-9.02299976348877z M186.08799743652344,-8.130000114440918 C186.08799743652344,-10.357000350952148 185.4949951171875,-12.119000434875488 184.31100463867188,-13.418000221252441 C183.1269989013672,-14.717000007629395 181.45199584960938,-15.366000175476074 179.28599548339844,-15.366000175476074 C177.197998046875,-15.366000175476074 175.43899536132812,-14.638999938964844 174.00799560546875,-13.184000015258789 C172.57699584960938,-11.729000091552734 171.86099243164062,-9.755999565124512 171.86099243164062,-7.265999794006348 C171.86099243164062,-4.863999843597412 172.5229949951172,-2.990999937057495 173.84800720214844,-1.6480000019073486 C175.1719970703125,-0.3050000071525574 177.0330047607422,0.3659999966621399 179.43099975585938,0.3659999966621399 C181.62600708007812,0.3659999966621399 183.41000366210938,-0.004999999888241291 184.7830047607422,-0.746999979019165 C184.7830047607422,-0.746999979019165 184.7830047607422,-4.086999893188477 184.7830047607422,-4.086999893188477 C183.5449981689453,-3.305999994277954 182.11000061035156,-2.9149999618530273 180.4759979248047,-2.9149999618530273 C177.91400146484375,-2.9149999618530273 176.55599975585938,-4.004000186920166 176.4010009765625,-6.182000160217285 C176.4010009765625,-6.182000160217285 186.08799743652344,-6.182000160217285 186.08799743652344,-6.182000160217285 C186.08799743652344,-6.182000160217285 186.08799743652344,-8.130000114440918 186.08799743652344,-8.130000114440918z"></path></g><g opacity="1" transform="matrix(1,0,0,1,0,0)"><path fill="rgb(36,36,36)" fill-opacity="1" d=" M158.86700439453125,-17.152999877929688 C160.93600463867188,-17.152999877929688 162.54299926757812,-16.57900047302246 163.68899536132812,-15.432000160217285 C164.8350067138672,-14.284000396728516 165.40699768066406,-12.710000038146973 165.40699768066406,-10.708000183105469 C165.40699768066406,-8.58899974822998 164.82899475097656,-6.914000034332275 163.6739959716797,-5.684000015258789 C162.5189971923828,-4.453999996185303 160.92599487304688,-3.8380000591278076 158.89599609375,-3.8380000591278076 C158.89599609375,-3.8380000591278076 156.5760040283203,-3.8380000591278076 156.5760040283203,-3.8380000591278076 C156.5760040283203,-3.8380000591278076 156.5760040283203,-17.152999877929688 156.5760040283203,-17.152999877929688 C156.5760040283203,-17.152999877929688 158.86700439453125,-17.152999877929688 158.86700439453125,-17.152999877929688z M159.25900268554688,0 C162.61399841308594,0 165.29800415039062,-0.9769999980926514 167.31399536132812,-2.930000066757202 C169.3300018310547,-4.882999897003174 170.33799743652344,-7.494999885559082 170.33799743652344,-10.767000198364258 C170.33799743652344,-17.593000411987305 166.64500427246094,-21.006000518798828 159.25900268554688,-21.006000518798828 C159.25900268554688,-21.006000518798828 151.89199829101562,-21.006000518798828 151.89199829101562,-21.006000518798828 C151.89199829101562,-21.006000518798828 151.89199829101562,0 151.89199829101562,0 C151.89199829101562,0 159.25900268554688,0 159.25900268554688,0z"></path></g><g opacity="1" transform="matrix(1,0,0,1,0,0)"><path fill="rgb(36,36,36)" fill-opacity="1" d=" M141.85499572753906,-3.6040000915527344 C141.3419952392578,-3.321000099182129 140.843994140625,-3.178999900817871 140.36099243164062,-3.178999900817871 C139.13299560546875,-3.178999900817871 138.52000427246094,-3.9590001106262207 138.52000427246094,-5.521999835968018 C138.52000427246094,-5.521999835968018 138.52000427246094,-11.586999893188477 138.52000427246094,-11.586999893188477 C138.52000427246094,-11.586999893188477 141.85499572753906,-11.586999893188477 141.85499572753906,-11.586999893188477 C141.85499572753906,-11.586999893188477 141.85499572753906,-15 141.85499572753906,-15 C141.85499572753906,-15 138.52000427246094,-15 138.52000427246094,-15 C138.52000427246094,-15 138.52000427246094,-19.555999755859375 138.52000427246094,-19.555999755859375 C138.52000427246094,-19.555999755859375 133.95199584960938,-18.23699951171875 133.95199584960938,-18.23699951171875 C133.95199584960938,-18.23699951171875 133.95199584960938,-15 133.95199584960938,-15 C133.95199584960938,-15 131.54400634765625,-15 131.54400634765625,-15 C131.54400634765625,-15 131.54400634765625,-11.586999893188477 131.54400634765625,-11.586999893188477 C131.54400634765625,-11.586999893188477 133.95199584960938,-11.586999893188477 133.95199584960938,-11.586999893188477 C133.95199584960938,-11.586999893188477 133.95199584960938,-4.7170000076293945 133.95199584960938,-4.7170000076293945 C133.95199584960938,-1.3279999494552612 135.5659942626953,0.3659999966621399 138.7949981689453,0.3659999966621399 C140.1580047607422,0.3659999966621399 141.17799377441406,0.1850000023841858 141.85499572753906,-0.17599999904632568 C141.85499572753906,-0.17599999904632568 141.85499572753906,-3.6040000915527344 141.85499572753906,-3.6040000915527344z"></path></g><g opacity="1" transform="matrix(1,0,0,1,0,0)"><path fill="rgb(36,36,36)" fill-opacity="1" d=" M131.2100067138672,-22.266000747680664 C130.59100341796875,-22.461000442504883 129.8179931640625,-22.55900001525879 128.88999938964844,-22.55900001525879 C126.99500274658203,-22.55900001525879 125.49600219726562,-22.035999298095703 124.39399719238281,-20.990999221801758 C123.29199981689453,-19.945999145507812 122.74099731445312,-18.569000244140625 122.74099731445312,-16.860000610351562 C122.74099731445312,-16.860000610351562 122.74099731445312,-15 122.74099731445312,-15 C122.74099731445312,-15 120.24700164794922,-15 120.24700164794922,-15 C120.24700164794922,-15 120.24700164794922,-11.586999893188477 120.24700164794922,-11.586999893188477 C120.24700164794922,-11.586999893188477 122.74099731445312,-11.586999893188477 122.74099731445312,-11.586999893188477 C122.74099731445312,-11.586999893188477 122.74099731445312,0 122.74099731445312,0 C122.74099731445312,0 127.30899810791016,0 127.30899810791016,0 C127.30899810791016,0 127.30899810791016,-11.586999893188477 127.30899810791016,-11.586999893188477 C127.30899810791016,-11.586999893188477 130.7030029296875,-11.586999893188477 130.7030029296875,-11.586999893188477 C130.7030029296875,-11.586999893188477 130.7030029296875,-15 130.7030029296875,-15 C130.7030029296875,-15 127.30899810791016,-15 127.30899810791016,-15 C127.30899810791016,-15 127.30899810791016,-16.597000122070312 127.30899810791016,-16.597000122070312 C127.30899810791016,-18.20800018310547 128.04299926757812,-19.013999938964844 129.51300048828125,-19.013999938964844 C130.0540008544922,-19.013999938964844 130.6199951171875,-18.895999908447266 131.2100067138672,-18.66200065612793 C131.2100067138672,-18.66200065612793 131.2100067138672,-22.266000747680664 131.2100067138672,-22.266000747680664z"></path></g><g opacity="1" transform="matrix(1,0,0,1,0,0)"><path fill="rgb(36,36,36)" fill-opacity="1" d=" M114.92400360107422,-7.617000102996826 C114.92400360107422,-4.6579999923706055 113.8270034790039,-3.178999900817871 111.63200378417969,-3.178999900817871 C109.33100128173828,-3.178999900817871 108.18000030517578,-4.61899995803833 108.18000030517578,-7.5 C108.18000030517578,-8.876999855041504 108.4800033569336,-9.940999984741211 109.08000183105469,-10.692999839782715 C109.67900085449219,-11.444999694824219 110.5199966430664,-11.821000099182129 111.60299682617188,-11.821000099182129 C113.81700134277344,-11.821000099182129 114.92400360107422,-10.420000076293945 114.92400360107422,-7.617000102996826z M117.42500305175781,-1.8020000457763672 C118.87000274658203,-3.246999979019165 119.59300231933594,-5.215000152587891 119.59300231933594,-7.704999923706055 C119.59300231933594,-10.010000228881836 118.89299774169922,-11.86299991607666 117.49099731445312,-13.263999938964844 C116.08899688720703,-14.664999961853027 114.15499877929688,-15.366000175476074 111.69000244140625,-15.366000175476074 C109.18599700927734,-15.366000175476074 107.1989974975586,-14.664999961853027 105.7300033569336,-13.263999938964844 C104.26000213623047,-11.86299991607666 103.5250015258789,-9.920999526977539 103.5250015258789,-7.440999984741211 C103.5250015258789,-5.039000034332275 104.23400115966797,-3.13700008392334 105.6500015258789,-1.7359999418258667 C107.06600189208984,-0.33500000834465027 109.01200103759766,0.3659999966621399 111.48699951171875,0.3659999966621399 C114.0009994506836,0.3659999966621399 115.9800033569336,-0.3569999933242798 117.42500305175781,-1.8020000457763672z"></path></g><g opacity="1" transform="matrix(1,0,0,1,0,0)"><path fill="rgb(36,36,36)" fill-opacity="1" d=" M95.50499725341797,0.3659999966621399 C96.39399719238281,0.3659999966621399 97.25199890136719,0.2759999930858612 98.0790023803711,0.0949999988079071 C98.90599822998047,-0.0860000029206276 99.63600158691406,-0.37299999594688416 100.26899719238281,-0.7689999938011169 C100.9020004272461,-1.1649999618530273 101.41000366210938,-1.6770000457763672 101.79199981689453,-2.306999921798706 C102.17400360107422,-2.937000036239624 102.36499786376953,-3.696000099182129 102.36499786376953,-4.585000038146973 C102.36499786376953,-5.21999979019165 102.27100372314453,-5.767000198364258 102.08200073242188,-6.22599983215332 C101.89299774169922,-6.684999942779541 101.62300109863281,-7.085000038146973 101.2699966430664,-7.427000045776367 C100.91699981689453,-7.769000053405762 100.49400329589844,-8.065999984741211 100.0009994506836,-8.319999694824219 C99.50800323486328,-8.574000358581543 98.95700073242188,-8.807999610900879 98.3479995727539,-9.02299976348877 C98.00900268554688,-9.140000343322754 97.66799926757812,-9.255999565124512 97.32499694824219,-9.368000030517578 C96.98200225830078,-9.479999542236328 96.66999816894531,-9.607000350952148 96.38999938964844,-9.74899959564209 C96.10900115966797,-9.890000343322754 95.88200378417969,-10.059000015258789 95.70800018310547,-10.253999710083008 C95.53399658203125,-10.449000358581543 95.4469985961914,-10.682999610900879 95.4469985961914,-10.956999778747559 C95.4469985961914,-11.161999702453613 95.50499725341797,-11.345000267028809 95.62100219726562,-11.505999565124512 C95.73699951171875,-11.666999816894531 95.89700317382812,-11.798999786376953 96.0999984741211,-11.902000427246094 C96.3030014038086,-12.005000114440918 96.53700256347656,-12.081999778747559 96.8030014038086,-12.13599967956543 C97.06900024414062,-12.1899995803833 97.35099792480469,-12.217000007629395 97.6510009765625,-12.217000007629395 C98.28900146484375,-12.217000007629395 98.94000244140625,-12.130999565124512 99.60199737548828,-11.960000038146973 C100.26399993896484,-11.788999557495117 100.88500213623047,-11.532999992370605 101.46499633789062,-11.190999984741211 C101.46499633789062,-11.190999984741211 101.46499633789062,-14.765999794006348 101.46499633789062,-14.765999794006348 C100.80699920654297,-14.961000442504883 100.14099884033203,-15.109000205993652 99.46399688720703,-15.211999893188477 C98.78700256347656,-15.3149995803833 98.12000274658203,-15.366000175476074 97.46299743652344,-15.366000175476074 C96.62200164794922,-15.366000175476074 95.81199645996094,-15.276000022888184 95.03399658203125,-15.095000267028809 C94.25599670410156,-14.913999557495117 93.56400299072266,-14.631999969482422 92.95999908447266,-14.246000289916992 C92.35600280761719,-13.859999656677246 91.87300109863281,-13.36400032043457 91.51000213623047,-12.758999824523926 C91.14700317382812,-12.152999877929688 90.96600341796875,-11.430999755859375 90.96600341796875,-10.590999603271484 C90.96600341796875,-9.97599983215332 91.04499816894531,-9.442999839782715 91.20500183105469,-8.994000434875488 C91.36499786376953,-8.545000076293945 91.59600067138672,-8.149999618530273 91.9010009765625,-7.808000087738037 C92.20600128173828,-7.466000080108643 92.58300018310547,-7.165999889373779 93.03299713134766,-6.9070000648498535 C93.48300170898438,-6.6479997634887695 94.00199890136719,-6.4070000648498535 94.59200286865234,-6.182000160217285 C94.95899963378906,-6.035999774932861 95.33999633789062,-5.9029998779296875 95.73699951171875,-5.785999774932861 C96.13300323486328,-5.669000148773193 96.49800109863281,-5.5370001792907715 96.83200073242188,-5.390999794006348 C97.16600036621094,-5.244999885559082 97.43800354003906,-5.072999954223633 97.6510009765625,-4.877999782562256 C97.86399841308594,-4.683000087738037 97.97000122070312,-4.439000129699707 97.97000122070312,-4.145999908447266 C97.97000122070312,-3.687000036239624 97.73600006103516,-3.3450000286102295 97.26699829101562,-3.119999885559082 C96.7979965209961,-2.8949999809265137 96.15799713134766,-2.7829999923706055 95.34600067138672,-2.7829999923706055 C94.67900085449219,-2.7829999923706055 93.97000122070312,-2.8949999809265137 93.22100067138672,-3.119999885559082 C92.47200012207031,-3.3450000286102295 91.72000122070312,-3.687000036239624 90.96600341796875,-4.145999908447266 C90.96600341796875,-4.145999908447266 90.96600341796875,-0.3959999978542328 90.96600341796875,-0.3959999978542328 C92.35800170898438,0.1120000034570694 93.87100219726562,0.3659999966621399 95.50499725341797,0.3659999966621399z"></path></g><g opacity="1" transform="matrix(1,0,0,1,0,0)"><path fill="rgb(36,36,36)" fill-opacity="1" d=" M84.88899993896484,-7.617000102996826 C84.88899993896484,-4.6579999923706055 83.79199981689453,-3.178999900817871 81.59700012207031,-3.178999900817871 C79.2959976196289,-3.178999900817871 78.14600372314453,-4.61899995803833 78.14600372314453,-7.5 C78.14600372314453,-8.876999855041504 78.44499969482422,-9.940999984741211 79.04499816894531,-10.692999839782715 C79.64399719238281,-11.444999694824219 80.48500061035156,-11.821000099182129 81.56800079345703,-11.821000099182129 C83.78199768066406,-11.821000099182129 84.88899993896484,-10.420000076293945 84.88899993896484,-7.617000102996826z M87.39099884033203,-1.8020000457763672 C88.83599853515625,-3.246999979019165 89.55899810791016,-5.215000152587891 89.55899810791016,-7.704999923706055 C89.55899810791016,-10.010000228881836 88.85800170898438,-11.86299991607666 87.45600128173828,-13.263999938964844 C86.05400085449219,-14.664999961853027 84.12000274658203,-15.366000175476074 81.65499877929688,-15.366000175476074 C79.1510009765625,-15.366000175476074 77.16400146484375,-14.664999961853027 75.69499969482422,-13.263999938964844 C74.2249984741211,-11.86299991607666 73.49099731445312,-9.920999526977539 73.49099731445312,-7.440999984741211 C73.49099731445312,-5.039000034332275 74.1989974975586,-3.13700008392334 75.61499786376953,-1.7359999418258667 C77.03099822998047,-0.33500000834465027 78.97699737548828,0.3659999966621399 81.4520034790039,0.3659999966621399 C83.96600341796875,0.3659999966621399 85.94599914550781,-0.3569999933242798 87.39099884033203,-1.8020000457763672z"></path></g><g opacity="1" transform="matrix(1,0,0,1,0,0)"><path fill="rgb(36,36,36)" fill-opacity="1" d=" M72.9530029296875,-15.088000297546387 C72.68199920654297,-15.204999923706055 72.30500030517578,-15.263999938964844 71.8219985961914,-15.263999938964844 C69.93699645996094,-15.263999938964844 68.63200378417969,-14.248000144958496 67.90699768066406,-12.217000007629395 C67.90699768066406,-12.217000007629395 67.8489990234375,-12.217000007629395 67.8489990234375,-12.217000007629395 C67.8489990234375,-12.217000007629395 67.8489990234375,-15 67.8489990234375,-15 C67.8489990234375,-15 63.26599884033203,-15 63.26599884033203,-15 C63.26599884033203,-15 63.26599884033203,0 63.26599884033203,0 C63.26599884033203,0 67.8489990234375,0 67.8489990234375,0 C67.8489990234375,0 67.8489990234375,-7.163000106811523 67.8489990234375,-7.163000106811523 C67.8489990234375,-8.432000160217285 68.12899780273438,-9.435999870300293 68.69000244140625,-10.17300033569336 C69.2509994506836,-10.90999984741211 70.02899932861328,-11.279000282287598 71.0250015258789,-11.279000282287598 C71.76000213623047,-11.279000282287598 72.4020004272461,-11.128000259399414 72.9530029296875,-10.824999809265137 C72.9530029296875,-10.824999809265137 72.9530029296875,-15.088000297546387 72.9530029296875,-15.088000297546387z"></path></g><g opacity="1" transform="matrix(1,0,0,1,0,0)"><path fill="rgb(36,36,36)" fill-opacity="1" d=" M60.858001708984375,-4.263000011444092 C59.76499938964844,-3.5399999618530273 58.64899826049805,-3.178999900817871 57.507999420166016,-3.178999900817871 C56.22200012207031,-3.178999900817871 55.21200180053711,-3.556999921798706 54.47700119018555,-4.314000129699707 C53.742000579833984,-5.071000099182129 53.375,-6.11299991607666 53.375,-7.440999984741211 C53.375,-8.807999610900879 53.75899887084961,-9.880999565124512 54.52799987792969,-10.656999588012695 C55.297000885009766,-11.432999610900879 56.3380012512207,-11.821000099182129 57.65299987792969,-11.821000099182129 C58.832000732421875,-11.821000099182129 59.9010009765625,-11.460000038146973 60.858001708984375,-10.737000465393066 C60.858001708984375,-10.737000465393066 60.858001708984375,-14.663000106811523 60.858001708984375,-14.663000106811523 C60.07500076293945,-15.131999969482422 58.808998107910156,-15.366000175476074 57.058998107910156,-15.366000175476074 C54.5260009765625,-15.366000175476074 52.50299835205078,-14.631999969482422 50.9900016784668,-13.161999702453613 C49.47700119018555,-11.692000389099121 48.720001220703125,-9.682999610900879 48.720001220703125,-7.133999824523926 C48.720001220703125,-4.927000045776367 49.42499923706055,-3.125 50.83700180053711,-1.7289999723434448 C52.24800109863281,-0.3319999873638153 54.095001220703125,0.3659999966621399 56.37699890136719,0.3659999966621399 C58.33000183105469,0.3659999966621399 59.823001861572266,0.06300000101327896 60.858001708984375,-0.5419999957084656 C60.858001708984375,-0.5419999957084656 60.858001708984375,-4.263000011444092 60.858001708984375,-4.263000011444092z"></path></g><g opacity="1" transform="matrix(1,0,0,1,0,0)"><path fill="rgb(36,36,36)" fill-opacity="1" d=" M46.340999603271484,-15 C46.340999603271484,-15 41.75899887084961,-15 41.75899887084961,-15 C41.75899887084961,-15 41.75899887084961,0 41.75899887084961,0 C41.75899887084961,0 46.340999603271484,0 46.340999603271484,0 C46.340999603271484,0 46.340999603271484,-15 46.340999603271484,-15z M45.986000061035156,-18.047000885009766 C46.4739990234375,-18.496000289916992 46.71799850463867,-19.07200050354004 46.71799850463867,-19.774999618530273 C46.71799850463867,-20.468000411987305 46.4739990234375,-21.035999298095703 45.986000061035156,-21.475000381469727 C45.49800109863281,-21.913999557495117 44.86199951171875,-22.134000778198242 44.07899856567383,-22.134000778198242 C43.30500030517578,-22.134000778198242 42.672000885009766,-21.913999557495117 42.17900085449219,-21.475000381469727 C41.68600082397461,-21.035999298095703 41.439998626708984,-20.468000411987305 41.439998626708984,-19.774999618530273 C41.439998626708984,-19.10099983215332 41.68600082397461,-18.533000946044922 42.17900085449219,-18.069000244140625 C42.672000885009766,-17.604999542236328 43.30500030517578,-17.37299919128418 44.07899856567383,-17.37299919128418 C44.86199951171875,-17.37299919128418 45.49800109863281,-17.597999572753906 45.986000061035156,-18.047000885009766z"></path></g><g opacity="1" transform="matrix(1,0,0,1,0,0)"><path fill="rgb(36,36,36)" fill-opacity="1" d=" M38.07500076293945,-21.006000518798828 C38.07500076293945,-21.006000518798828 31.388999938964844,-21.006000518798828 31.388999938964844,-21.006000518798828 C31.388999938964844,-21.006000518798828 27.139999389648438,-8.583999633789062 27.139999389648438,-8.583999633789062 C26.850000381469727,-7.724999904632568 26.573999404907227,-6.714000225067139 26.312999725341797,-5.552000045776367 C26.312999725341797,-5.552000045776367 26.22599983215332,-5.552000045776367 26.22599983215332,-5.552000045776367 C26.070999145507812,-6.558000087738037 25.825000762939453,-7.559000015258789 25.48699951171875,-8.555000305175781 C25.48699951171875,-8.555000305175781 21.238000869750977,-21.006000518798828 21.238000869750977,-21.006000518798828 C21.238000869750977,-21.006000518798828 14.378000259399414,-21.006000518798828 14.378000259399414,-21.006000518798828 C14.378000259399414,-21.006000518798828 14.378000259399414,0 14.378000259399414,0 C14.378000259399414,0 18.597999572753906,0 18.597999572753906,0 C18.597999572753906,0 18.597999572753906,-11.616000175476074 18.597999572753906,-11.616000175476074 C18.597999572753906,-13.178000450134277 18.535999298095703,-14.994999885559082 18.40999984741211,-17.065000534057617 C18.40999984741211,-17.065000534057617 18.540000915527344,-17.065000534057617 18.540000915527344,-17.065000534057617 C18.84000015258789,-15.493000030517578 19.058000564575195,-14.517000198364258 19.19300079345703,-14.13599967956543 C19.19300079345703,-14.13599967956543 24.152999877929688,0 24.152999877929688,0 C24.152999877929688,0 27.981000900268555,0 27.981000900268555,0 C27.981000900268555,0 32.854000091552734,-14.281999588012695 32.854000091552734,-14.281999588012695 C33.047000885009766,-14.847999572753906 33.263999938964844,-15.776000022888184 33.50600051879883,-17.065000534057617 C33.50600051879883,-17.065000534057617 33.62200164794922,-17.065000534057617 33.62200164794922,-17.065000534057617 C33.50600051879883,-15.423999786376953 33.448001861572266,-13.925000190734863 33.448001861572266,-12.567999839782715 C33.448001861572266,-12.567999839782715 33.448001861572266,0 33.448001861572266,0 C33.448001861572266,0 38.07500076293945,0 38.07500076293945,0 C38.07500076293945,0 38.07500076293945,-21.006000518798828 38.07500076293945,-21.006000518798828z"></path></g></g><g mask="url(#__lottie_element_62)" style="display: block;"><g transform="matrix(0.30000001192092896,0,0,0.30000001192092896,142.33880615234375,114.63389587402344)" opacity="1"><g opacity="1" transform="matrix(1.7000000476837158,0,0,1.7000000476837158,0,0)"><path stroke="url(#__lottie_element_68)" stroke-linecap="round" stroke-linejoin="miter" fill-opacity="0" stroke-miterlimit="4" stroke-opacity="1" stroke-width="229" d=" M80,-254 C162,-142 190,-47 179,27 C160.16400146484375,153.71600341796875 21.222000122070312,221.59500122070312 -93.26200103759766,144.71400451660156"></path></g></g></g><g mask="url(#__lottie_element_55)" style="display: block;"><g transform="matrix(0.30000001192092896,0,0,0.30000001192092896,134.3000030517578,112.5)" opacity="1"><g opacity="1" transform="matrix(1.3899999856948853,0,0,1.3899999856948853,0,0)"><path stroke="url(#__lottie_element_61)" stroke-linecap="round" stroke-linejoin="miter" fill-opacity="0" stroke-miterlimit="4" stroke-opacity="1" stroke-width="168" d=" M106,-95 C168,-19 151.05999755859375,69.40299987792969 131,102 C115,128 84,161 37,155 C-15.187999725341797,148.33799743652344 -70,93 -70,93"></path></g></g></g><g mask="url(#__lottie_element_45)" style="display: block;"><g transform="matrix(0.29997819662094116,0.003617979818955064,-0.003617979818955064,0.29997819662094116,139.6259002685547,137.66099548339844)" opacity="1"><g opacity="1" transform="matrix(1,0,0,1,-125.5,83.5)"><path fill="url(#__lottie_element_51)" mask="url(#__lottie_element_53)" fill-opacity="1" d="M0 0 M0,-127.5 C70.36724853515625,-127.5 127.5,-70.36724853515625 127.5,0 C127.5,70.36724853515625 70.36724853515625,127.5 0,127.5 C-70.36724853515625,127.5 -127.5,70.36724853515625 -127.5,0 C-127.5,-70.36724853515625 -70.36724853515625,-127.5 0,-127.5z"></path><path stroke="url(#__lottie_element_54)" stroke-linecap="butt" stroke-linejoin="miter" fill-opacity="0" stroke-miterlimit="4" stroke-opacity="1" stroke-width="0" d=" M0,-127.5 C70.36724853515625,-127.5 127.5,-70.36724853515625 127.5,0 C127.5,70.36724853515625 70.36724853515625,127.5 0,127.5 C-70.36724853515625,127.5 -127.5,70.36724853515625 -127.5,0 C-127.5,-70.36724853515625 -70.36724853515625,-127.5 0,-127.5z"></path></g></g></g><g transform="matrix(0,0,0,0,165.9499969482422,163.9499969482422)" opacity="1" style="display: block;"><g opacity="1" transform="matrix(1,0,0,1,332,129.51600646972656)"><path fill="url(#__lottie_element_44)" fill-opacity="1" d=" M-11.74899959564209,-75.41600036621094 C-11.74899959564209,-75.41600036621094 -28.070999145507812,-52.31800079345703 -28.070999145507812,-52.31800079345703 C-34.374000549316406,-43.39799880981445 -42.11899948120117,-35.60499954223633 -50.98400115966797,-29.261999130249023 C-50.98400115966797,-29.261999130249023 -73.93800354003906,-12.838000297546387 -73.93800354003906,-12.838000297546387 C-82.02100372314453,-7.054999828338623 -82.02100372314453,5.021999835968018 -73.93800354003906,10.805000305175781 C-73.93800354003906,10.805000305175781 -50.98400115966797,27.229999542236328 -50.98400115966797,27.229999542236328 C-42.11899948120117,33.573001861572266 -34.374000549316406,41.36600112915039 -28.070999145507812,50.2859992980957 C-28.070999145507812,50.2859992980957 -11.74899959564209,73.38300323486328 -11.74899959564209,73.38300323486328 C-6.000999927520752,81.51599884033203 6.000999927520752,81.51599884033203 11.74899959564209,73.38300323486328 C11.74899959564209,73.38300323486328 28.070999145507812,50.2859992980957 28.070999145507812,50.2859992980957 C34.374000549316406,41.36600112915039 42.11899948120117,33.573001861572266 50.98400115966797,27.229999542236328 C50.98400115966797,27.229999542236328 73.93800354003906,10.805000305175781 73.93800354003906,10.805000305175781 C82.02100372314453,5.021999835968018 82.02100372314453,-7.054999828338623 73.93800354003906,-12.838000297546387 C73.93800354003906,-12.838000297546387 50.98400115966797,-29.261999130249023 50.98400115966797,-29.261999130249023 C42.11899948120117,-35.60499954223633 34.374000549316406,-43.39799880981445 28.070999145507812,-52.31800079345703 C28.070999145507812,-52.31800079345703 11.74899959564209,-75.41600036621094 11.74899959564209,-75.41600036621094 C8.875,-79.48200225830078 4.438000202178955,-81.51599884033203 0,-81.51599884033203 C-4.438000202178955,-81.51599884033203 -8.875,-79.48200225830078 -11.74899959564209,-75.41600036621094z"></path></g></g><g transform="matrix(0,0,0,0,138.64999389648438,160.9499969482422)" opacity="1" style="display: block;"><g opacity="1" transform="matrix(1,0,0,1,332,129.51600646972656)"><path fill="url(#__lottie_element_40)" fill-opacity="1" d=" M-11.74899959564209,-75.41600036621094 C-11.74899959564209,-75.41600036621094 -28.070999145507812,-52.31800079345703 -28.070999145507812,-52.31800079345703 C-34.374000549316406,-43.39799880981445 -42.11899948120117,-35.60499954223633 -50.98400115966797,-29.261999130249023 C-50.98400115966797,-29.261999130249023 -73.93800354003906,-12.838000297546387 -73.93800354003906,-12.838000297546387 C-82.02100372314453,-7.054999828338623 -82.02100372314453,5.021999835968018 -73.93800354003906,10.805000305175781 C-73.93800354003906,10.805000305175781 -50.98400115966797,27.229999542236328 -50.98400115966797,27.229999542236328 C-42.11899948120117,33.573001861572266 -34.374000549316406,41.36600112915039 -28.070999145507812,50.2859992980957 C-28.070999145507812,50.2859992980957 -11.74899959564209,73.38300323486328 -11.74899959564209,73.38300323486328 C-6.000999927520752,81.51599884033203 6.000999927520752,81.51599884033203 11.74899959564209,73.38300323486328 C11.74899959564209,73.38300323486328 28.070999145507812,50.2859992980957 28.070999145507812,50.2859992980957 C34.374000549316406,41.36600112915039 42.11899948120117,33.573001861572266 50.98400115966797,27.229999542236328 C50.98400115966797,27.229999542236328 73.93800354003906,10.805000305175781 73.93800354003906,10.805000305175781 C82.02100372314453,5.021999835968018 82.02100372314453,-7.054999828338623 73.93800354003906,-12.838000297546387 C73.93800354003906,-12.838000297546387 50.98400115966797,-29.261999130249023 50.98400115966797,-29.261999130249023 C42.11899948120117,-35.60499954223633 34.374000549316406,-43.39799880981445 28.070999145507812,-52.31800079345703 C28.070999145507812,-52.31800079345703 11.74899959564209,-75.41600036621094 11.74899959564209,-75.41600036621094 C8.875,-79.48200225830078 4.438000202178955,-81.51599884033203 0,-81.51599884033203 C-4.438000202178955,-81.51599884033203 -8.875,-79.48200225830078 -11.74899959564209,-75.41600036621094z"></path></g></g><g transform="matrix(0,0,0,0,161.14999389648438,160.64999389648438)" opacity="1" style="display: block;"><g opacity="1" transform="matrix(1,0,0,1,332,129.51600646972656)"><path fill="url(#__lottie_element_36)" fill-opacity="1" d=" M-11.74899959564209,-75.41600036621094 C-11.74899959564209,-75.41600036621094 -28.070999145507812,-52.31800079345703 -28.070999145507812,-52.31800079345703 C-34.374000549316406,-43.39799880981445 -42.11899948120117,-35.60499954223633 -50.98400115966797,-29.261999130249023 C-50.98400115966797,-29.261999130249023 -73.93800354003906,-12.838000297546387 -73.93800354003906,-12.838000297546387 C-82.02100372314453,-7.054999828338623 -82.02100372314453,5.021999835968018 -73.93800354003906,10.805000305175781 C-73.93800354003906,10.805000305175781 -50.98400115966797,27.229999542236328 -50.98400115966797,27.229999542236328 C-42.11899948120117,33.573001861572266 -34.374000549316406,41.36600112915039 -28.070999145507812,50.2859992980957 C-28.070999145507812,50.2859992980957 -11.74899959564209,73.38300323486328 -11.74899959564209,73.38300323486328 C-6.000999927520752,81.51599884033203 6.000999927520752,81.51599884033203 11.74899959564209,73.38300323486328 C11.74899959564209,73.38300323486328 28.070999145507812,50.2859992980957 28.070999145507812,50.2859992980957 C34.374000549316406,41.36600112915039 42.11899948120117,33.573001861572266 50.98400115966797,27.229999542236328 C50.98400115966797,27.229999542236328 73.93800354003906,10.805000305175781 73.93800354003906,10.805000305175781 C82.02100372314453,5.021999835968018 82.02100372314453,-7.054999828338623 73.93800354003906,-12.838000297546387 C73.93800354003906,-12.838000297546387 50.98400115966797,-29.261999130249023 50.98400115966797,-29.261999130249023 C42.11899948120117,-35.60499954223633 34.374000549316406,-43.39799880981445 28.070999145507812,-52.31800079345703 C28.070999145507812,-52.31800079345703 11.74899959564209,-75.41600036621094 11.74899959564209,-75.41600036621094 C8.875,-79.48200225830078 4.438000202178955,-81.51599884033203 0,-81.51599884033203 C-4.438000202178955,-81.51599884033203 -8.875,-79.48200225830078 -11.74899959564209,-75.41600036621094z"></path></g></g><g transform="matrix(0,0,0,0,168.35000610351562,53.25)" opacity="1" style="display: block;"><g opacity="1" transform="matrix(1,0,0,1,332,129.51600646972656)"><path fill="url(#__lottie_element_32)" fill-opacity="1" d=" M-11.74899959564209,-75.41600036621094 C-11.74899959564209,-75.41600036621094 -28.070999145507812,-52.31800079345703 -28.070999145507812,-52.31800079345703 C-34.374000549316406,-43.39799880981445 -42.11899948120117,-35.60499954223633 -50.98400115966797,-29.261999130249023 C-50.98400115966797,-29.261999130249023 -73.93800354003906,-12.838000297546387 -73.93800354003906,-12.838000297546387 C-82.02100372314453,-7.054999828338623 -82.02100372314453,5.021999835968018 -73.93800354003906,10.805000305175781 C-73.93800354003906,10.805000305175781 -50.98400115966797,27.229999542236328 -50.98400115966797,27.229999542236328 C-42.11899948120117,33.573001861572266 -34.374000549316406,41.36600112915039 -28.070999145507812,50.2859992980957 C-28.070999145507812,50.2859992980957 -11.74899959564209,73.38300323486328 -11.74899959564209,73.38300323486328 C-6.000999927520752,81.51599884033203 6.000999927520752,81.51599884033203 11.74899959564209,73.38300323486328 C11.74899959564209,73.38300323486328 28.070999145507812,50.2859992980957 28.070999145507812,50.2859992980957 C34.374000549316406,41.36600112915039 42.11899948120117,33.573001861572266 50.98400115966797,27.229999542236328 C50.98400115966797,27.229999542236328 73.93800354003906,10.805000305175781 73.93800354003906,10.805000305175781 C82.02100372314453,5.021999835968018 82.02100372314453,-7.054999828338623 73.93800354003906,-12.838000297546387 C73.93800354003906,-12.838000297546387 50.98400115966797,-29.261999130249023 50.98400115966797,-29.261999130249023 C42.11899948120117,-35.60499954223633 34.374000549316406,-43.39799880981445 28.070999145507812,-52.31800079345703 C28.070999145507812,-52.31800079345703 11.74899959564209,-75.41600036621094 11.74899959564209,-75.41600036621094 C8.875,-79.48200225830078 4.438000202178955,-81.51599884033203 0,-81.51599884033203 C-4.438000202178955,-81.51599884033203 -8.875,-79.48200225830078 -11.74899959564209,-75.41600036621094z"></path></g></g><g transform="matrix(0,0,0,0,165.9499969482422,156.14999389648438)" opacity="1" style="display: block;"><g opacity="1" transform="matrix(1,0,0,1,332,129.51600646972656)"><path fill="url(#__lottie_element_28)" fill-opacity="1" d=" M-11.74899959564209,-75.41600036621094 C-11.74899959564209,-75.41600036621094 -28.070999145507812,-52.31800079345703 -28.070999145507812,-52.31800079345703 C-34.374000549316406,-43.39799880981445 -42.11899948120117,-35.60499954223633 -50.98400115966797,-29.261999130249023 C-50.98400115966797,-29.261999130249023 -73.93800354003906,-12.838000297546387 -73.93800354003906,-12.838000297546387 C-82.02100372314453,-7.054999828338623 -82.02100372314453,5.021999835968018 -73.93800354003906,10.805000305175781 C-73.93800354003906,10.805000305175781 -50.98400115966797,27.229999542236328 -50.98400115966797,27.229999542236328 C-42.11899948120117,33.573001861572266 -34.374000549316406,41.36600112915039 -28.070999145507812,50.2859992980957 C-28.070999145507812,50.2859992980957 -11.74899959564209,73.38300323486328 -11.74899959564209,73.38300323486328 C-6.000999927520752,81.51599884033203 6.000999927520752,81.51599884033203 11.74899959564209,73.38300323486328 C11.74899959564209,73.38300323486328 28.070999145507812,50.2859992980957 28.070999145507812,50.2859992980957 C34.374000549316406,41.36600112915039 42.11899948120117,33.573001861572266 50.98400115966797,27.229999542236328 C50.98400115966797,27.229999542236328 73.93800354003906,10.805000305175781 73.93800354003906,10.805000305175781 C82.02100372314453,5.021999835968018 82.02100372314453,-7.054999828338623 73.93800354003906,-12.838000297546387 C73.93800354003906,-12.838000297546387 50.98400115966797,-29.261999130249023 50.98400115966797,-29.261999130249023 C42.11899948120117,-35.60499954223633 34.374000549316406,-43.39799880981445 28.070999145507812,-52.31800079345703 C28.070999145507812,-52.31800079345703 11.74899959564209,-75.41600036621094 11.74899959564209,-75.41600036621094 C8.875,-79.48200225830078 4.438000202178955,-81.51599884033203 0,-81.51599884033203 C-4.438000202178955,-81.51599884033203 -8.875,-79.48200225830078 -11.74899959564209,-75.41600036621094z"></path></g></g><g transform="matrix(0.29999417066574097,0,0,0.29999417066574097,72.95240783691406,60.150306701660156)" opacity="1" style="display: block;"><g opacity="1" transform="matrix(1,0,0,1,412.5,53.08700180053711)"><path fill="url(#__lottie_element_24)" fill-opacity="1" d=" M-6.828999996185303,-43.56399917602539 C-6.828999996185303,-43.56399917602539 -16.31599998474121,-30.22100067138672 -16.31599998474121,-30.22100067138672 C-19.979999542236328,-25.069000244140625 -24.48200035095215,-20.566999435424805 -29.634000778198242,-16.902999877929688 C-29.634000778198242,-16.902999877929688 -42.97700119018555,-7.415999889373779 -42.97700119018555,-7.415999889373779 C-47.67399978637695,-4.074999809265137 -47.67399978637695,2.9010000228881836 -42.97700119018555,6.242000102996826 C-42.97700119018555,6.242000102996826 -29.634000778198242,15.729000091552734 -29.634000778198242,15.729000091552734 C-24.48200035095215,19.39299964904785 -19.979999542236328,23.895000457763672 -16.31599998474121,29.047000885009766 C-16.31599998474121,29.047000885009766 -6.828999996185303,42.38999938964844 -6.828999996185303,42.38999938964844 C-3.48799991607666,47.08700180053711 3.48799991607666,47.08700180053711 6.828999996185303,42.38999938964844 C6.828999996185303,42.38999938964844 16.31599998474121,29.047000885009766 16.31599998474121,29.047000885009766 C19.979999542236328,23.895000457763672 24.48200035095215,19.39299964904785 29.634000778198242,15.729000091552734 C29.634000778198242,15.729000091552734 42.97700119018555,6.242000102996826 42.97700119018555,6.242000102996826 C47.67399978637695,2.9010000228881836 47.67399978637695,-4.074999809265137 42.97700119018555,-7.415999889373779 C42.97700119018555,-7.415999889373779 29.634000778198242,-16.902999877929688 29.634000778198242,-16.902999877929688 C24.48200035095215,-20.566999435424805 19.979999542236328,-25.069000244140625 16.31599998474121,-30.22100067138672 C16.31599998474121,-30.22100067138672 6.828999996185303,-43.56399917602539 6.828999996185303,-43.56399917602539 C5.158999919891357,-45.91299819946289 2.5789999961853027,-47.08700180053711 0,-47.08700180053711 C-2.5789999961853027,-47.08700180053711 -5.1579999923706055,-45.91299819946289 -6.828999996185303,-43.56399917602539z"></path></g></g><g transform="matrix(0.2999951243400574,0,0,0.2999951243400574,72.0516128540039,59.550621032714844)" opacity="1" style="display: block;"><g opacity="1" transform="matrix(1,0,0,1,332,129.51600646972656)"><path fill="url(#__lottie_element_20)" fill-opacity="1" d=" M-11.74899959564209,-75.41600036621094 C-11.74899959564209,-75.41600036621094 -28.070999145507812,-52.31800079345703 -28.070999145507812,-52.31800079345703 C-34.374000549316406,-43.39799880981445 -42.11899948120117,-35.60499954223633 -50.98400115966797,-29.261999130249023 C-50.98400115966797,-29.261999130249023 -73.93800354003906,-12.838000297546387 -73.93800354003906,-12.838000297546387 C-82.02100372314453,-7.054999828338623 -82.02100372314453,5.021999835968018 -73.93800354003906,10.805000305175781 C-73.93800354003906,10.805000305175781 -50.98400115966797,27.229999542236328 -50.98400115966797,27.229999542236328 C-42.11899948120117,33.573001861572266 -34.374000549316406,41.36600112915039 -28.070999145507812,50.2859992980957 C-28.070999145507812,50.2859992980957 -11.74899959564209,73.38300323486328 -11.74899959564209,73.38300323486328 C-6.000999927520752,81.51599884033203 6.000999927520752,81.51599884033203 11.74899959564209,73.38300323486328 C11.74899959564209,73.38300323486328 28.070999145507812,50.2859992980957 28.070999145507812,50.2859992980957 C34.374000549316406,41.36600112915039 42.11899948120117,33.573001861572266 50.98400115966797,27.229999542236328 C50.98400115966797,27.229999542236328 73.93800354003906,10.805000305175781 73.93800354003906,10.805000305175781 C82.02100372314453,5.021999835968018 82.02100372314453,-7.054999828338623 73.93800354003906,-12.838000297546387 C73.93800354003906,-12.838000297546387 50.98400115966797,-29.261999130249023 50.98400115966797,-29.261999130249023 C42.11899948120117,-35.60499954223633 34.374000549316406,-43.39799880981445 28.070999145507812,-52.31800079345703 C28.070999145507812,-52.31800079345703 11.74899959564209,-75.41600036621094 11.74899959564209,-75.41600036621094 C8.875,-79.48200225830078 4.438000202178955,-81.51599884033203 0,-81.51599884033203 C-4.438000202178955,-81.51599884033203 -8.875,-79.48200225830078 -11.74899959564209,-75.41600036621094z"></path></g></g><g transform="matrix(0.30000001192092896,0,0,0.30000001192092896,71.14999389648438,59.54999542236328)" opacity="1" style="display: block;"><g opacity="1" transform="matrix(1,0,0,1,68.06700134277344,334.0159912109375)"><path fill="url(#__lottie_element_16)" fill-opacity="1" d=" M-18.26799964904785,-74.8740005493164 C-54.46500015258789,-63.03799819946289 -75.62999725341797,-23.67300033569336 -65.54000091552734,13.050000190734863 C-65.54000091552734,13.050000190734863 -49.70800018310547,70.6760025024414 -49.70800018310547,70.6760025024414 C-48.36199951171875,75.5719985961914 -43.35900115966797,78.26200103759766 -38.53300094604492,76.68399810791016 C-38.53300094604492,76.68399810791016 18.268999099731445,58.10900115966797 18.268999099731445,58.10900115966797 C54.465999603271484,46.27299880981445 75.62999725341797,6.9079999923706055 65.54100036621094,-29.815000534057617 C57.409000396728516,-59.41400146484375 31.45400047302246,-78.26200103759766 2.734999895095825,-78.26200103759766 C-4.176000118255615,-78.26200103759766 -11.246999740600586,-77.16999816894531 -18.26799964904785,-74.8740005493164z"></path></g></g><g transform="matrix(0.30000001192092896,0,0,0.30000001192092896,71.14999389648438,59.54999542236328)" opacity="1" style="display: block;"><g opacity="1" transform="matrix(1,0,0,1,170.3489990234375,129.5989990234375)"><path fill="url(#__lottie_element_9)" fill-opacity="1" d=" M30.82200050354004,-114.60399627685547 C30.82200050354004,-114.60399627685547 -90.53900146484375,92.99800109863281 -90.53900146484375,92.99800109863281 C-90.53900146484375,92.99800109863281 -22.81100082397461,129.41099548339844 -22.81100082397461,129.41099548339844 C-22.81100082397461,129.41099548339844 83.43099975585938,-86.31900024414062 83.43099975585938,-86.31900024414062 C90.53900146484375,-100.75299835205078 84.94400024414062,-118.2239990234375 70.77300262451172,-125.84300231933594 C66.2760009765625,-128.25999450683594 61.42900085449219,-129.41099548339844 56.645999908447266,-129.41099548339844 C46.35599899291992,-129.41000366210938 36.36600112915039,-124.08599853515625 30.82200050354004,-114.60399627685547z"></path></g></g><g transform="matrix(0.30000001192092896,0,0,0.30000001192092896,71.14999389648438,59.54999542236328)" opacity="1" style="display: block;"><g opacity="1" transform="matrix(1,0,0,1,104.5719985961914,257.73699951171875)"><path fill="url(#__lottie_element_12)" fill-opacity="1" d=" M-42.96699905395508,-1.2740000486373901 C-42.96699905395508,-1.2740000486373901 24.760000228881836,35.138999938964844 24.760000228881836,35.138999938964844 C24.760000228881836,35.138999938964844 42.96699905395508,1.274999976158142 42.96699905395508,1.274999976158142 C42.96699905395508,1.274999976158142 -24.76099967956543,-35.13800048828125 -24.76099967956543,-35.13800048828125 C-24.76099967956543,-35.13800048828125 -42.96699905395508,-1.2740000486373901 -42.96699905395508,-1.2740000486373901z"></path></g></g></g></svg>